<svg width="128" height="30" viewBox="0 0 128 30" fill="none" xmlns="http://www.w3.org/2000/svg">
<g clip-path="url(#clip0_1_41)">
<path d="M27.3812 6.5296C24.6786 2.58665 20.1414 0 15 0C6.71573 0 0 6.71572 0 15C0 16.2052 0.14215 17.3773 0.410585 18.5003L8.04917 10.8617C8.78141 10.1294 9.96859 10.1294 10.7008 10.8617L16.875 17.0358L27.3812 6.5296Z" fill="#8794BA"/>
<path d="M29.1641 10.0501L18.2008 21.0133C17.4686 21.7456 16.2814 21.7456 15.5492 21.0133L9.375 14.8392L1.90063 22.3135C4.46662 26.8997 9.37125 30 15 30C23.2843 30 30 23.2843 30 15C30 13.2655 29.7056 11.5998 29.1641 10.0501Z" fill="#8794BA"/>
</g>
<g clip-path="url(#clip1_1_41)">
<path d="M47.1062 17.7921H43.2016L42.5197 20.0001H39.4756L43.8104 8.18073H46.4893L50.8566 20.0001H47.7962L47.1062 17.7921ZM43.8835 15.5922H46.4243L45.1498 11.4927L43.8835 15.5922Z" fill="#8794BA"/>
<path d="M61.5963 20.0001H58.7632L54.5745 12.6455V20.0001H51.7252V8.18073H54.5745L58.7551 15.5353V8.18073H61.5963V20.0001Z" fill="#8794BA"/>
<path d="M70.2578 17.7921H66.3532L65.6713 20.0001H62.6272L66.962 8.18073H69.6409L74.0082 20.0001H70.9478L70.2578 17.7921ZM67.0351 15.5922H69.5759L68.3015 11.4927L67.0351 15.5922Z" fill="#8794BA"/>
<path d="M77.7261 17.8083H82.686V20.0001H74.8768V8.18073H77.7261V17.8083Z" fill="#8794BA"/>
<path d="M85.9412 13.3111L88.1167 8.18073H91.1933L87.3861 15.7545V20.0001H84.4962V15.7545L80.6971 8.18073H83.7575L85.9412 13.3111Z" fill="#8794BA"/>
<path d="M101.478 10.3806H97.931V20.0001H95.0817V10.3806H91.5992V8.18073H101.478V10.3806Z" fill="#8794BA"/>
<path d="M105.724 20.0001H102.883V8.18073H105.724V20.0001Z" fill="#8794BA"/>
<path d="M117.267 15.9981C117.229 16.8206 117.008 17.5485 116.602 18.1817C116.196 18.8095 115.625 19.2965 114.889 19.6429C114.158 19.9892 113.322 20.1624 112.38 20.1624C110.827 20.1624 109.604 19.6564 108.711 18.6444C107.818 17.6324 107.372 16.2037 107.372 14.3583V13.7738C107.372 12.6157 107.572 11.6037 107.973 10.7378C108.378 9.8665 108.96 9.19543 109.718 8.72461C110.475 8.24837 111.352 8.01025 112.348 8.01025C113.782 8.01025 114.935 8.38908 115.806 9.14673C116.677 9.89897 117.173 10.938 117.292 12.2639H114.45C114.429 11.5441 114.248 11.0273 113.907 10.7134C113.566 10.3996 113.046 10.2426 112.348 10.2426C111.639 10.2426 111.119 10.5078 110.789 11.0382C110.459 11.5685 110.286 12.4154 110.27 13.579V14.4151C110.27 15.6761 110.427 16.5771 110.741 17.1183C111.06 17.6595 111.607 17.93 112.38 17.93C113.035 17.93 113.536 17.7758 113.882 17.4674C114.229 17.1589 114.413 16.6691 114.434 15.9981H117.267Z" fill="#8794BA"/>
<path d="M124.711 16.8585C124.711 16.4418 124.562 16.1171 124.265 15.8844C123.973 15.6517 123.456 15.4109 122.714 15.1619C121.973 14.913 121.367 14.6722 120.896 14.4394C119.364 13.6872 118.599 12.6536 118.599 11.3385C118.599 10.6837 118.788 10.1073 119.167 9.60944C119.551 9.10614 120.092 8.71649 120.79 8.44049C121.488 8.15908 122.273 8.01837 123.145 8.01837C123.994 8.01837 124.754 8.1699 125.425 8.47296C126.102 8.77602 126.627 9.20896 127 9.77179C127.374 10.3292 127.561 10.9678 127.561 11.6876H124.719C124.719 11.2059 124.57 10.8325 124.273 10.5673C123.981 10.3021 123.583 10.1696 123.079 10.1696C122.571 10.1696 122.168 10.2832 121.87 10.5105C121.578 10.7324 121.432 11.0165 121.432 11.3628C121.432 11.6659 121.594 11.9419 121.919 12.1909C122.243 12.4344 122.814 12.6887 123.632 12.9539C124.449 13.2137 125.12 13.4951 125.645 13.7982C126.922 14.5342 127.561 15.5489 127.561 16.8423C127.561 17.8759 127.171 18.6877 126.392 19.2776C125.612 19.8675 124.543 20.1624 123.185 20.1624C122.227 20.1624 121.359 19.9919 120.579 19.651C119.805 19.3046 119.221 18.8338 118.826 18.2385C118.436 17.6378 118.241 16.9478 118.241 16.1685H121.099C121.099 16.8017 121.261 17.2698 121.586 17.5729C121.916 17.8705 122.449 18.0193 123.185 18.0193C123.656 18.0193 124.027 17.9192 124.297 17.719C124.573 17.5134 124.711 17.2265 124.711 16.8585Z" fill="#8794BA"/>
</g>
<defs>
<clipPath id="clip0_1_41">
<rect width="30" height="30" fill="white"/>
</clipPath>
<clipPath id="clip1_1_41">
<rect width="89" height="13" fill="white" transform="translate(39 8)"/>
</clipPath>
</defs>
</svg>
