<svg width="172" height="40" viewBox="0 0 172 40" fill="none" xmlns="http://www.w3.org/2000/svg">
<g clip-path="url(#clip0_1_15)">
<path d="M36.5083 8.70613C32.9048 3.44887 26.8551 0 20 0C8.95431 0 0 8.9543 0 20C0 21.607 0.189533 23.1697 0.547447 24.667L10.7322 14.4822C11.7085 13.5059 13.2915 13.5059 14.2678 14.4822L22.5 22.7145L36.5083 8.70613Z" fill="#EF2A82"/>
<path d="M38.8854 13.4001L24.2678 28.0178C23.2915 28.9941 21.7085 28.9941 20.7322 28.0178L12.5 19.7855L2.53418 29.7514C5.9555 35.8662 12.495 40 20 40C31.0457 40 40 31.0457 40 20C40 17.6874 39.6075 15.4664 38.8854 13.4001Z" fill="#EF2A82"/>
</g>
<g clip-path="url(#clip1_1_15)">
<path d="M63.8084 25.0559H58.6023L57.6931 28H53.6343L59.4141 12.2408H62.9858L68.8089 28H64.7284L63.8084 25.0559ZM59.5115 22.1228H62.8993L61.2 16.6569L59.5115 22.1228Z" fill="white"/>
<path d="M83.1285 28H79.3511L73.7661 18.1938V28H69.967V12.2408H73.7661L79.3402 22.047V12.2408H83.1285V28Z" fill="white"/>
<path d="M94.6772 25.0559H89.4711L88.5619 28H84.5031L90.2829 12.2408H93.8547L99.6777 28H95.5972L94.6772 25.0559ZM90.3803 22.1228H93.7681L92.0688 16.6569L90.3803 22.1228Z" fill="white"/>
<path d="M104.635 25.0776H111.248V28H100.836V12.2408H104.635V25.0776Z" fill="white"/>
<path d="M115.588 19.0813L118.489 12.2408H122.591L117.515 22.3392V28H113.662V22.3392L108.596 12.2408H112.677L115.588 19.0813Z" fill="white"/>
<path d="M136.305 15.174H131.575V28H127.776V15.174H123.132V12.2408H136.305V15.174Z" fill="white"/>
<path d="M141.965 28H138.177V12.2408H141.965V28Z" fill="white"/>
<path d="M157.357 22.6639C157.306 23.7607 157.01 24.7312 156.469 25.5755C155.928 26.4125 155.167 27.0619 154.185 27.5237C153.211 27.9855 152.096 28.2164 150.841 28.2164C148.77 28.2164 147.139 27.5418 145.949 26.1924C144.758 24.8431 144.163 22.9381 144.163 20.4776V19.6983C144.163 18.1541 144.43 16.8048 144.964 15.6503C145.505 14.4885 146.28 13.5938 147.291 12.966C148.301 12.331 149.47 12.0135 150.797 12.0135C152.71 12.0135 154.247 12.5186 155.408 13.5288C156.57 14.5318 157.23 15.9173 157.389 17.6851H153.601C153.572 16.7254 153.33 16.0363 152.876 15.6178C152.421 15.1993 151.728 14.99 150.797 14.99C149.852 14.99 149.159 15.3436 148.719 16.0507C148.279 16.7579 148.048 17.8871 148.027 19.4385V20.5533C148.027 22.2346 148.236 23.436 148.654 24.1576C149.08 24.8792 149.809 25.2399 150.841 25.2399C151.714 25.2399 152.381 25.0343 152.843 24.623C153.305 24.2117 153.55 23.5587 153.579 22.6639H157.357Z" fill="white"/>
<path d="M167.282 23.8112C167.282 23.2556 167.083 22.8227 166.686 22.5124C166.297 22.2021 165.608 21.881 164.619 21.5491C163.631 21.2172 162.822 20.8961 162.195 20.5858C160.153 19.5828 159.132 18.2046 159.132 16.4512C159.132 15.5781 159.384 14.8096 159.889 14.1458C160.402 13.4747 161.123 12.9552 162.054 12.5872C162.985 12.212 164.031 12.0244 165.193 12.0244C166.326 12.0244 167.339 12.2264 168.234 12.6305C169.136 13.0346 169.836 13.6118 170.334 14.3623C170.832 15.1055 171.081 15.9569 171.081 16.9166H167.293C167.293 16.2744 167.094 15.7765 166.697 15.423C166.308 15.0694 165.777 14.8926 165.106 14.8926C164.428 14.8926 163.89 15.0442 163.493 15.3472C163.104 15.6431 162.909 16.0219 162.909 16.4837C162.909 16.8878 163.125 17.2558 163.558 17.5877C163.991 17.9124 164.753 18.2515 165.842 18.6051C166.932 18.9515 167.827 19.3267 168.526 19.7308C170.229 20.7121 171.081 22.065 171.081 23.7896C171.081 25.1678 170.561 26.2501 169.522 27.0367C168.483 27.8232 167.058 28.2164 165.247 28.2164C163.97 28.2164 162.812 27.9891 161.773 27.5345C160.741 27.0727 159.961 26.445 159.435 25.6512C158.915 24.8503 158.655 23.9303 158.655 22.8912H162.465C162.465 23.7355 162.682 24.3596 163.115 24.7637C163.555 25.1606 164.266 25.359 165.247 25.359C165.875 25.359 166.369 25.2255 166.73 24.9585C167.098 24.6843 167.282 24.3019 167.282 23.8112Z" fill="white"/>
</g>
<defs>
<clipPath id="clip0_1_15">
<rect width="40" height="40" fill="white"/>
</clipPath>
<clipPath id="clip1_1_15">
<rect width="119" height="17" fill="white" transform="translate(53 12)"/>
</clipPath>
</defs>
</svg>
